<svg xmlns="http://www.w3.org/2000/svg" xmlns:xlink="http://www.w3.org/1999/xlink" viewBox="0 0 706.21 609"><defs><style>.cls-1{fill:url(#linear-gradient);}</style><linearGradient id="linear-gradient" x1="77.74" y1="137.77" x2="680.91" y2="521.06" gradientUnits="userSpaceOnUse"><stop offset="0" stop-color="#ff7100"/><stop offset="1" stop-color="#ff4000"/></linearGradient></defs><title>Asset 4</title><g id="Layer_2" data-name="Layer 2"><g id="Layer_1-2" data-name="Layer 1"><path class="cls-1" d="M705,398.41c-2.86-19.13-10.54-36-20.64-51.6-28.12-43.46-66.17-73.15-108.64-97-16.68-9.35-17.77-19.19-4.89-34,5.8-6.68,13.08-10.63,20.4-14.51a28.45,28.45,0,0,1,2.55-2.6l.14-.19a29.6,29.6,0,0,1,2.17-3.32,29.33,29.33,0,0,1,2.2-4.46,29.45,29.45,0,0,1,1.63-3.67c15.58-48.23-.06-80.33-45.18-92.91-11.12-3.09-22.38-5.79-33.9-3.77-10.41,1.82-11.91-2.55-9.52-12.89C520,40.05,494.46,25.13,472.82,8.2c-17.61-13.79-35-8.4-51.63,3A351,351,0,0,0,350.5,74.8c-28.25,33.55-35.84,33.76-69.17,7.65-43.21-33.85-89.2-59.78-143.67-60.32-56.31-.55-78.08,39.66-51.93,95.15,1.47,3.11,3.16,6.09,4.75,9.14,10.14,19.5,20.62,38.79,30.32,58.56,1.83,3.71,3.27,6.76,4.29,9.28a20.94,20.94,0,0,1,1.22,1.84l.54.66a18.41,18.41,0,0,1,1.68,1.94c.28.36.54.74.79,1.12a22.36,22.36,0,0,1,5.21,13.67,19.44,19.44,0,0,1-10.25,17.62,18.53,18.53,0,0,1-3.89,2.47c-4.13,2.52-8.24,2.54-12.76,1.8-4.8-.29-1.79-.31-.44-.07l.44.07.45,0c-.48,0-1-.14-1.43-.19-1.45-.16-2.9-.32-4.35-.43-2.6-.21-5.22-.31-7.83-.32-1.11,0-2.23,0-3.34.05-25.76,8.49-49.21,22.64-70.19,42-29.42,27.19-27.5,63.7,3.64,88.59,13,10.35,27.48,17.52,42.08,24.48a542.29,542.29,0,0,1,64.63,36c10.41,6.83,14.22,14.95,9.14,27.82-7.88,19.95-7.9,41.18-6.47,62.29,2.86,42.34,28,66.86,66.18,68.5C219,585,236.65,573,254.5,576.81c48.51,10.48,85.46-13.44,119-46.42,4.06-4,7.35-6.59,10.17-7.79a2.71,2.71,0,0,1,1.32-1,24.43,24.43,0,0,1,2.15-1.91,165.22,165.22,0,0,1-36.81,2.65A209.37,209.37,0,0,1,244.2,493.67l-42.56-32.89A210.14,210.14,0,0,1,147.55,368L140,312.08a158.46,158.46,0,0,1,18.11-81,157.61,157.61,0,0,1,43.49-67.68,157.73,157.73,0,0,1,67.68-43.49,158.46,158.46,0,0,1,81-18.11,209.37,209.37,0,0,1,106.14,28.71L499,163.38a210,210,0,0,1,54.09,92.79q3.75,28,7.51,55.91a158.46,158.46,0,0,1-18.11,81A157.63,157.63,0,0,1,499,460.78a157.52,157.52,0,0,1-67.68,43.49,160.76,160.76,0,0,1-22.28,9.63c24.45,49.6,60.76,82.12,112.46,92.68,53.91,11,90.38-15.91,102.24-75.41,1-4.8,1.44-9.71,2.44-14.5,1.24-6,4.34-9.83,8.53-11.7h0a21,21,0,0,1,2.14-1.65h0a38.47,38.47,0,0,1,14.89-8.81c.13,0,1.09-.29,2-.57l.48-.22c1.57-.81,3.18-1.55,4.81-2.22l.46-.15.21-.08a17.65,17.65,0,0,1,4.4-2.31c.59-.48,1.2-1,1.86-1.44C694.38,466.74,711,438.25,705,398.41Z"/></g></g></svg>